<svg width="24" height="24" viewBox="0 0 24 24" fill="none" xmlns="http://www.w3.org/2000/svg">
<path fill-rule="evenodd" clip-rule="evenodd" d="M3.25 6.8C3.25 4.83939 4.83939 3.25 6.8 3.25H17.2C19.1606 3.25 20.75 4.83939 20.75 6.8V17.2C20.75 19.1606 19.1606 20.75 17.2 20.75H6.8C4.83939 20.75 3.25 19.1606 3.25 17.2V6.8ZM6.8 4.75C5.66782 4.75 4.75 5.66782 4.75 6.8V17.2C4.75 18.3322 5.66782 19.25 6.8 19.25H17.2C18.3322 19.25 19.25 18.3322 19.25 17.2V6.8C19.25 5.66782 18.3322 4.75 17.2 4.75H6.8Z" fill="#9580ff"/>
<path fill-rule="evenodd" clip-rule="evenodd" d="M9 11.25C9.41421 11.25 9.75 11.5858 9.75 12L9.75 17C9.75 17.4142 9.41421 17.75 9 17.75C8.58579 17.75 8.25 17.4142 8.25 17L8.25 12C8.25 11.5858 8.58579 11.25 9 11.25Z" fill="#9580ff"/>
<path fill-rule="evenodd" clip-rule="evenodd" d="M12 13.25C12.4142 13.25 12.75 13.5858 12.75 14L12.75 17C12.75 17.4142 12.4142 17.75 12 17.75C11.5858 17.75 11.25 17.4142 11.25 17L11.25 14C11.25 13.5858 11.5858 13.25 12 13.25Z" fill="#9580ff"/>
<path fill-rule="evenodd" clip-rule="evenodd" d="M15 9.25C15.4142 9.25 15.75 9.58579 15.75 10L15.75 17C15.75 17.4142 15.4142 17.75 15 17.75C14.5858 17.75 14.25 17.4142 14.25 17L14.25 10C14.25 9.58579 14.5858 9.25 15 9.25Z" fill="#9580ff"/>
</svg>
