<svg width="24" height="24" viewBox="0 0 24 24" fill="none" xmlns="http://www.w3.org/2000/svg">
<path fill-rule="evenodd" clip-rule="evenodd" d="M3.25 8.8C3.25 6.83939 4.83939 5.25 6.8 5.25H17.2C19.1606 5.25 20.75 6.83939 20.75 8.8V15.2C20.75 17.1606 19.1606 18.75 17.2 18.75H6.8C4.83939 18.75 3.25 17.1606 3.25 15.2V8.8ZM6.8 6.75C5.66782 6.75 4.75 7.66782 4.75 8.8V15.2C4.75 16.3322 5.66782 17.25 6.8 17.25H17.2C18.3322 17.25 19.25 16.3322 19.25 15.2V8.8C19.25 7.66782 18.3322 6.75 17.2 6.75H6.8Z" fill="#9580ff"/>
<path fill-rule="evenodd" clip-rule="evenodd" d="M7.40004 9.54998C7.64857 9.21861 8.11867 9.15145 8.45004 9.39998L11.85 11.95C11.9389 12.0166 12.0612 12.0166 12.15 11.95L15.55 9.39998C15.8814 9.15145 16.3515 9.21861 16.6 9.54998C16.8486 9.88135 16.7814 10.3515 16.45 10.6L13.05 13.15C12.4278 13.6166 11.5723 13.6166 10.95 13.15L7.55004 10.6C7.21867 10.3515 7.15152 9.88135 7.40004 9.54998Z" fill="#9580ff"/>
</svg>
