<svg width="24" height="24" viewBox="0 0 24 24" fill="none" xmlns="http://www.w3.org/2000/svg">
<path fill-rule="evenodd" clip-rule="evenodd" d="M2.25 7.2C2.25 5.11568 3.74845 3.25 5.8 3.25H7.18717C8.52209 3.25 9.6941 4.07607 10.2919 5.30799C10.383 5.49567 10.4939 5.66628 10.6205 5.81625L10.7473 5.96653C11.1449 6.43751 11.6687 6.67857 12.1894 6.67857H16.2C18.1182 6.67857 19.5528 8.30954 19.7313 10.2252C20.3483 10.3802 20.8882 10.6949 21.2393 11.211C21.7924 12.0239 21.694 13.0576 21.1635 14.064L21.1492 14.0911L17.9579 19.1059C17.3063 20.1299 16.1767 20.75 14.963 20.75H5.8C4.90121 20.75 4.09202 20.3793 3.48057 19.7923C2.7157 19.0579 2.25 17.9795 2.25 16.8V7.2ZM18.2047 10.1071C17.9974 8.94407 17.1112 8.17857 16.2 8.17857H12.1894C11.1899 8.17857 10.2589 7.71339 9.60111 6.93408L9.47426 6.7838C9.26462 6.53545 9.08626 6.25921 8.94245 5.96288C8.56069 5.17622 7.87197 4.75 7.18717 4.75H5.8C4.75876 4.75 3.75 5.7497 3.75 7.2V16.8C3.75 17.002 3.77045 17.1971 3.80857 17.3828L6.13148 11.8833C6.40328 11.1788 6.95743 10.7327 7.52344 10.4714C8.08945 10.2102 8.71774 10.1071 9.25707 10.1071H18.2047ZM4.79321 18.9327C5.09674 19.1388 5.44101 19.25 5.8 19.25H14.963C15.6638 19.25 16.3162 18.8919 16.6925 18.3006L19.85 13.3387C20.2213 12.6207 20.1205 12.2331 19.9992 12.0548C19.8572 11.8461 19.4792 11.6071 18.7207 11.6071H9.25707C8.89009 11.6071 8.48409 11.6801 8.1521 11.8333C7.824 11.9848 7.62017 12.1874 7.52884 12.4287L7.52381 12.442L4.84424 18.7859C4.82403 18.8338 4.80699 18.8828 4.79321 18.9327Z" fill="#9580ff"/>
<path fill-rule="evenodd" clip-rule="evenodd" d="M8.25 14C8.25 13.5858 8.58579 13.25 9 13.25H17C17.4142 13.25 17.75 13.5858 17.75 14C17.75 14.4142 17.4142 14.75 17 14.75H9C8.58579 14.75 8.25 14.4142 8.25 14Z" fill="#9580ff"/>
</svg>
