<svg width="24" height="24" viewBox="0 0 24 24" fill="none" xmlns="http://www.w3.org/2000/svg">
<path fill-rule="evenodd" clip-rule="evenodd" d="M4.89075 6.22249C3.77896 6.43568 3.05065 7.50972 3.26389 8.62179L4.27935 13.9175C4.40935 14.5955 5.06438 15.0398 5.74238 14.9098L6.02486 16.3829C4.53325 16.6689 3.0922 15.6916 2.80618 14.2L1.79073 8.90427C1.42153 6.97888 2.68259 5.11858 4.60827 4.74933L9.71564 3.76999C11.291 3.46792 13.32 3.11364 14.9247 2.83986C16.8257 2.51553 18.6262 3.7759 18.9882 5.66403L19.1214 6.35878C19.1994 6.76558 18.9329 7.15859 18.5261 7.2366C18.1193 7.3146 17.7263 7.04806 17.6483 6.64126L17.5151 5.94651C17.3057 4.85447 16.2673 4.13247 15.177 4.31849C13.5741 4.59198 11.5576 4.94412 9.99811 5.24315L4.89075 6.22249Z" fill="#9580ff"/>
<path fill-rule="evenodd" clip-rule="evenodd" d="M15.7137 7.74175C15.1062 7.74596 14.5213 7.75001 14 7.75001H8.79958C7.66755 7.75001 6.75 8.66768 6.75 9.80001V17C6.75 17.6904 7.30964 18.25 8 18.25H8.24257C9.0751 18.25 9.75 18.9249 9.75 19.7574C9.75 20.1709 9.77068 20.5828 9.85675 20.8724C9.86709 20.9072 9.87751 20.937 9.88757 20.9622C9.89202 20.956 9.89667 20.9493 9.90153 20.9422C9.95529 20.8633 10.009 20.7666 10.0811 20.6328C10.0863 20.6233 10.0915 20.6134 10.0969 20.6034C10.1598 20.4865 10.2392 20.339 10.3277 20.2023L10.5429 19.8701C11.1972 18.8599 12.3188 18.25 13.5224 18.25H19.2C20.3323 18.25 21.25 17.3323 21.25 16.2002V9.86662C21.25 8.64779 20.4814 7.77389 19.4819 7.74978C18.3836 7.72328 16.9982 7.73286 15.7137 7.74175ZM9.81415 21.0474C9.81418 21.047 9.81655 21.0449 9.82117 21.0422C9.81643 21.0464 9.81412 21.0477 9.81415 21.0474ZM15.6687 6.24194C16.9657 6.23301 18.3966 6.22315 19.5181 6.25021C21.5419 6.29905 22.75 8.06127 22.75 9.86662V16.2002C22.75 18.1609 21.1605 19.75 19.2 19.75H13.5224C12.8274 19.75 12.1797 20.1022 11.8018 20.6856L11.5866 21.0178C11.5325 21.1013 11.4805 21.1979 11.409 21.3306L11.4016 21.3444C11.3332 21.4713 11.245 21.6345 11.1408 21.7872C10.9355 22.0883 10.5573 22.5106 9.91489 22.5286C9.49742 22.5403 9.1387 22.385 8.87279 22.1157C8.62977 21.8696 8.49718 21.563 8.41892 21.2998C8.26412 20.779 8.25 20.1686 8.25 19.7574C8.25 19.7559 8.24986 19.7553 8.24984 19.7551L8.24972 19.7548C8.24958 19.7544 8.24904 19.7534 8.24782 19.7522C8.24661 19.751 8.24558 19.7504 8.24523 19.7503L8.24486 19.7502C8.24479 19.7502 8.2445 19.7501 8.24392 19.7501C8.24358 19.75 8.24313 19.75 8.24257 19.75H8C6.48122 19.75 5.25 18.5188 5.25 17V9.80001C5.25 7.83954 6.83883 6.25001 8.79958 6.25001H14C14.4985 6.25001 15.0693 6.24607 15.6687 6.24194Z" fill="#9580ff"/>
<path d="M11 13C11 13.5523 10.5523 14 10 14C9.44772 14 9 13.5523 9 13C9 12.4477 9.44772 12 10 12C10.5523 12 11 12.4477 11 13Z" fill="#9580ff"/>
<path d="M15 13C15 13.5523 14.5523 14 14 14C13.4477 14 13 13.5523 13 13C13 12.4477 13.4477 12 14 12C14.5523 12 15 12.4477 15 13Z" fill="#9580ff"/>
<path d="M19 13C19 13.5523 18.5523 14 18 14C17.4477 14 17 13.5523 17 13C17 12.4477 17.4477 12 18 12C18.5523 12 19 12.4477 19 13Z" fill="#9580ff"/>
</svg>
