<svg width="24" height="24" viewBox="0 0 24 24" fill="none" xmlns="http://www.w3.org/2000/svg">
<path fill-rule="evenodd" clip-rule="evenodd" d="M20.75 17.2C20.75 19.1606 19.1606 20.75 17.2 20.75H6.8C4.83939 20.75 3.25 19.1606 3.25 17.2V6.8C3.25 4.83939 4.83939 3.25 6.8 3.25H17.2C19.1606 3.25 20.75 4.83939 20.75 6.8V17.2ZM17.2 19.25C18.3322 19.25 19.25 18.3322 19.25 17.2V6.8C19.25 5.66782 18.3322 4.75 17.2 4.75H6.8C5.66782 4.75 4.75 5.66782 4.75 6.8V17.2C4.75 18.3322 5.66782 19.25 6.8 19.25H17.2Z" fill="#9580ff"/>
<path fill-rule="evenodd" clip-rule="evenodd" d="M9.25 9.88034C9.25 8.32313 10.6812 7.25 12.1945 7.25H12.2971C12.6191 7.25 12.94 7.30684 13.2407 7.41925C14.0141 7.70841 14.5523 8.31654 14.7061 9.04346C14.8616 9.77858 14.6033 10.5497 13.9616 11.0829L13.3049 11.6285C13.0092 11.8742 12.8719 12.184 12.8719 12.4763V13C12.8719 13.4142 12.5361 13.75 12.1219 13.75C11.7077 13.75 11.3719 13.4142 11.3719 13V12.4763C11.3719 11.6947 11.7424 10.9766 12.3463 10.4748L13.003 9.92918C13.2306 9.74006 13.2751 9.52655 13.2385 9.35384C13.2003 9.17292 13.0518 8.95005 12.7154 8.82425C12.5865 8.77606 12.4438 8.75 12.2971 8.75H12.1945C11.2838 8.75 10.75 9.36058 10.75 9.88034V9.98347C10.75 10.3977 10.4142 10.7335 10 10.7335C9.58579 10.7335 9.25 10.3977 9.25 9.98347V9.88034Z" fill="#9580ff"/>
<path d="M11 15C11 14.4477 11.4477 14 12 14C12.5523 14 13 14.4477 13 15C13 15.5523 12.5523 16 12 16C11.4477 16 11 15.5523 11 15Z" fill="#9580ff"/>
</svg>
