<svg width="24" height="24" viewBox="0 0 24 24" fill="none" xmlns="http://www.w3.org/2000/svg">
<path fill-rule="evenodd" clip-rule="evenodd" d="M15 8.25C15.4142 8.25 15.75 8.58579 15.75 9L15.75 9.09615C15.75 9.12873 15.7479 9.16083 15.7439 9.19231C15.7479 9.22379 15.75 9.25588 15.75 9.28846L15.75 9.48077C15.75 9.51335 15.7479 9.54544 15.7439 9.57692C15.7479 9.60841 15.75 9.6405 15.75 9.67308L15.75 9.86538C15.75 9.89796 15.7479 9.93006 15.7439 9.96154C15.7479 9.99302 15.75 10.0251 15.75 10.0577L15.75 10.25C15.75 10.2826 15.7479 10.3147 15.7439 10.3462C15.7479 10.3776 15.75 10.4097 15.75 10.4423L15.75 10.6346C15.75 10.6672 15.7479 10.6993 15.7439 10.7308C15.7479 10.7623 15.75 10.7943 15.75 10.8269L15.75 11.0192C15.75 11.0518 15.7479 11.0839 15.7439 11.1154C15.7479 11.1469 15.75 11.179 15.75 11.2115L15.75 11.4038C15.75 11.4364 15.7479 11.4685 15.7439 11.5C15.7479 11.5315 15.75 11.5636 15.75 11.5962L15.75 11.7885C15.75 11.821 15.7479 11.8531 15.7439 11.8846C15.7479 11.9161 15.75 11.9482 15.75 11.9808L15.75 12.1731C15.75 12.2057 15.7479 12.2377 15.7439 12.2692C15.7479 12.3007 15.75 12.3328 15.75 12.3654L15.75 12.5577C15.75 12.5903 15.7479 12.6224 15.7439 12.6538C15.7479 12.6853 15.75 12.7174 15.75 12.75L15.75 12.9423C15.75 12.9749 15.7479 13.007 15.7439 13.0385C15.7479 13.0699 15.75 13.102 15.75 13.1346L15.75 13.3269C15.75 13.3595 15.7479 13.3916 15.7439 13.4231C15.7479 13.4546 15.75 13.4867 15.75 13.5192L15.75 13.7115C15.75 13.7441 15.7479 13.7762 15.7439 13.8077C15.7479 13.8392 15.75 13.8713 15.75 13.9038L15.75 14C15.75 14.4142 15.4142 14.75 15 14.75C14.5858 14.75 14.25 14.4142 14.25 14L14.25 13.9038C14.25 13.8713 14.2521 13.8392 14.2561 13.8077C14.2521 13.7762 14.25 13.7441 14.25 13.7115L14.25 13.5192C14.25 13.4867 14.2521 13.4546 14.2561 13.4231C14.2521 13.3916 14.25 13.3595 14.25 13.3269L14.25 13.1346C14.25 13.102 14.2521 13.0699 14.2561 13.0385C14.2521 13.007 14.25 12.9749 14.25 12.9423L14.25 12.75C14.25 12.7174 14.2521 12.6853 14.2561 12.6538C14.2521 12.6224 14.25 12.5903 14.25 12.5577L14.25 12.3654C14.25 12.3328 14.2521 12.3007 14.2561 12.2692C14.2521 12.2377 14.25 12.2057 14.25 12.1731L14.25 11.9808C14.25 11.9482 14.2521 11.9161 14.2561 11.8846C14.2521 11.8531 14.25 11.821 14.25 11.7885L14.25 11.5962C14.25 11.5636 14.2521 11.5315 14.2561 11.5C14.2521 11.4685 14.25 11.4364 14.25 11.4038L14.25 11.2115C14.25 11.179 14.2521 11.1469 14.2561 11.1154C14.2521 11.0839 14.25 11.0518 14.25 11.0192L14.25 10.8269C14.25 10.7943 14.2521 10.7623 14.2561 10.7308C14.2521 10.6993 14.25 10.6672 14.25 10.6346L14.25 10.4423C14.25 10.4097 14.2521 10.3776 14.2561 10.3462C14.2521 10.3147 14.25 10.2826 14.25 10.25L14.25 10.0577C14.25 10.0251 14.2521 9.99302 14.2561 9.96154C14.2521 9.93006 14.25 9.89796 14.25 9.86538L14.25 9.67308C14.25 9.6405 14.2521 9.60841 14.2561 9.57692C14.2521 9.54544 14.25 9.51335 14.25 9.48077L14.25 9.28846C14.25 9.25588 14.2521 9.22379 14.2561 9.19231C14.2521 9.16083 14.25 9.12873 14.25 9.09615L14.25 9C14.25 8.58579 14.5858 8.25 15 8.25Z" fill="#9580ff"/>
<path fill-rule="evenodd" clip-rule="evenodd" d="M9 15.75C8.58579 15.75 8.25 15.4142 8.25 15L8.25 14.9038C8.25 14.8713 8.25208 14.8392 8.25611 14.8077C8.25208 14.7762 8.25 14.7441 8.25 14.7115L8.25 14.5192C8.25 14.4867 8.25208 14.4546 8.25611 14.4231C8.25208 14.3916 8.25 14.3595 8.25 14.3269L8.25 14.1346C8.25 14.102 8.25208 14.0699 8.25611 14.0385C8.25208 14.007 8.25 13.9749 8.25 13.9423L8.25 13.75C8.25 13.7174 8.25208 13.6853 8.25611 13.6538C8.25208 13.6224 8.25 13.5903 8.25 13.5577L8.25 13.3654C8.25 13.3328 8.25208 13.3007 8.25611 13.2692C8.25208 13.2377 8.25 13.2057 8.25 13.1731L8.25 12.9808C8.25 12.9482 8.25208 12.9161 8.25611 12.8846C8.25208 12.8531 8.25 12.821 8.25 12.7885L8.25 12.5962C8.25 12.5636 8.25208 12.5315 8.25611 12.5C8.25208 12.4685 8.25 12.4364 8.25 12.4038L8.25 12.2115C8.25 12.179 8.25208 12.1469 8.25611 12.1154C8.25208 12.0839 8.25 12.0518 8.25 12.0192L8.25 11.8269C8.25 11.7943 8.25208 11.7623 8.25611 11.7308C8.25208 11.6993 8.25 11.6672 8.25 11.6346L8.25 11.4423C8.25 11.4097 8.25208 11.3776 8.25611 11.3462C8.25208 11.3147 8.25 11.2826 8.25 11.25L8.25 11.0577C8.25 11.0251 8.25208 10.993 8.25611 10.9615C8.25208 10.9301 8.25 10.898 8.25 10.8654L8.25 10.6731C8.25 10.6405 8.25208 10.6084 8.25611 10.5769C8.25208 10.5454 8.25 10.5133 8.25 10.4808L8.25 10.2885C8.25 10.2559 8.25208 10.2238 8.25611 10.1923C8.25208 10.1608 8.25 10.1287 8.25 10.0962L8.25 10C8.25 9.58579 8.58579 9.25 9 9.25C9.41421 9.25 9.75 9.58579 9.75 10L9.75 10.0962C9.75 10.1287 9.74792 10.1608 9.74389 10.1923C9.74792 10.2238 9.75 10.2559 9.75 10.2885L9.75 10.4808C9.75 10.5133 9.74792 10.5454 9.74389 10.5769C9.74792 10.6084 9.75 10.6405 9.75 10.6731L9.75 10.8654C9.75 10.898 9.74792 10.9301 9.74389 10.9615C9.74792 10.993 9.75 11.0251 9.75 11.0577L9.75 11.25C9.75 11.2826 9.74792 11.3147 9.74389 11.3462C9.74792 11.3776 9.75 11.4097 9.75 11.4423L9.75 11.6346C9.75 11.6672 9.74792 11.6993 9.74389 11.7308C9.74792 11.7623 9.75 11.7943 9.75 11.8269L9.75 12.0192C9.75 12.0518 9.74792 12.0839 9.74389 12.1154C9.74792 12.1469 9.75 12.179 9.75 12.2115L9.75 12.4038C9.75 12.4364 9.74792 12.4685 9.74389 12.5C9.74792 12.5315 9.75 12.5636 9.75 12.5962L9.75 12.7885C9.75 12.821 9.74792 12.8531 9.74389 12.8846C9.74792 12.9161 9.75 12.9482 9.75 12.9808L9.75 13.1731C9.75 13.2057 9.74792 13.2377 9.74389 13.2692C9.74792 13.3007 9.75 13.3328 9.75 13.3654L9.75 13.5577C9.75 13.5903 9.74792 13.6224 9.74389 13.6538C9.74792 13.6853 9.75 13.7174 9.75 13.75L9.75 13.9423C9.75 13.9749 9.74792 14.007 9.74389 14.0385C9.74792 14.0699 9.75 14.102 9.75 14.1346L9.75 14.3269C9.75 14.3595 9.74792 14.3916 9.74389 14.4231C9.74792 14.4546 9.75 14.4867 9.75 14.5192L9.75 14.7115C9.75 14.7441 9.74792 14.7762 9.74389 14.8077C9.74792 14.8392 9.75 14.8713 9.75 14.9038L9.75 15C9.75 15.4142 9.41421 15.75 9 15.75Z" fill="#9580ff"/>
<path fill-rule="evenodd" clip-rule="evenodd" d="M12.584 10.624C12.9286 10.8538 13.3943 10.7607 13.6241 10.416L13.6825 10.3284C13.7023 10.2987 13.7197 10.2681 13.7348 10.2368C13.7579 10.2108 13.7794 10.183 13.7992 10.1532L13.916 9.97803C13.9359 9.9483 13.9533 9.91767 13.9683 9.88637C13.9914 9.86043 14.013 9.83257 14.0328 9.80284L14.1496 9.62765C14.1695 9.59792 14.1869 9.56728 14.2019 9.53598C14.225 9.51004 14.2466 9.48218 14.2664 9.45245L14.3832 9.27726C14.403 9.24753 14.4205 9.2169 14.4355 9.1856C14.4586 9.15966 14.4802 9.1318 14.5 9.10207L14.6168 8.92688C14.6366 8.89715 14.6541 8.86652 14.6691 8.83521C14.6922 8.80927 14.7138 8.78141 14.7336 8.75168L14.792 8.66409C14.7973 8.65615 14.8027 8.64892 14.808 8.64232C14.8133 8.63585 14.8184 8.62932 14.8235 8.62273C14.8298 8.61783 14.8361 8.61281 14.8423 8.60768C14.8544 8.59766 14.8673 8.58908 14.8808 8.58186C14.8879 8.5781 14.8948 8.57424 14.9017 8.57029C14.9095 8.56821 14.9173 8.566 14.9251 8.56367C14.9409 8.55892 14.9574 8.55565 14.9744 8.554C14.983 8.55317 14.9915 8.55219 15 8.55107C15.0085 8.55219 15.0171 8.55317 15.0257 8.554C15.0427 8.55565 15.0592 8.55892 15.075 8.56367C15.0828 8.566 15.0905 8.56821 15.0983 8.57029C15.1052 8.57424 15.1122 8.5781 15.1192 8.58186C15.1328 8.58908 15.1456 8.59766 15.1578 8.60768C15.164 8.61281 15.1703 8.61783 15.1766 8.62273C15.1816 8.62932 15.1867 8.63585 15.192 8.64232C15.1974 8.64892 15.2027 8.65615 15.208 8.66409L15.2664 8.75168C15.2862 8.78141 15.3078 8.80927 15.3309 8.83521C15.346 8.86652 15.3634 8.89715 15.3832 8.92688L15.5 9.10207C15.5198 9.1318 15.5414 9.15966 15.5645 9.1856C15.5796 9.2169 15.597 9.24753 15.6168 9.27726L15.7336 9.45245C15.7534 9.48218 15.775 9.51004 15.7981 9.53598C15.8132 9.56729 15.8306 9.59792 15.8504 9.62765L15.9672 9.80284C15.987 9.83257 16.0086 9.86043 16.0317 9.88637C16.0468 9.91767 16.0642 9.9483 16.084 9.97803L16.2008 10.1532C16.2206 10.183 16.2422 10.2108 16.2653 10.2368C16.2803 10.2681 16.2978 10.2987 16.3176 10.3284L16.376 10.416C16.6057 10.7607 17.0714 10.8538 17.416 10.624C17.7607 10.3943 17.8538 9.92861 17.6241 9.58396L17.5657 9.49637C17.5458 9.46664 17.5243 9.43878 17.5012 9.41284C17.4861 9.38153 17.4687 9.3509 17.4489 9.32117L17.3321 9.14598C17.3122 9.11625 17.2907 9.08839 17.2676 9.06245C17.2525 9.03115 17.2351 9.00052 17.2153 8.97079L17.0985 8.7956C17.0787 8.76587 17.0571 8.73801 17.034 8.71207C17.0189 8.68076 17.0015 8.65013 16.9817 8.6204L16.8649 8.44521C16.8451 8.41548 16.8235 8.38762 16.8004 8.36168C16.7853 8.33038 16.7679 8.29975 16.7481 8.27002L16.6313 8.09483C16.6115 8.0651 16.5899 8.03724 16.5668 8.0113C16.5517 7.97999 16.5343 7.94936 16.5145 7.91963L16.4561 7.83204C16.4245 7.78457 16.3908 7.73899 16.3553 7.69535C16.3183 7.64989 16.277 7.60988 16.2326 7.57545C16.1984 7.53051 16.1585 7.48876 16.1131 7.45124C16.0227 7.37655 15.9262 7.31228 15.8255 7.25854C15.7734 7.23076 15.7196 7.20974 15.6649 7.19517C15.616 7.16707 15.5631 7.14409 15.5067 7.12715C15.3965 7.09402 15.2839 7.07203 15.1707 7.06103C15.1126 7.05539 15.0555 7.05653 15 7.0638C14.9445 7.05653 14.8874 7.05539 14.8293 7.06103C14.7161 7.07203 14.6035 7.09402 14.4933 7.12715C14.4369 7.14409 14.384 7.16707 14.3351 7.19517C14.2804 7.20974 14.2266 7.23076 14.1745 7.25854C14.0738 7.31228 13.9774 7.37655 13.8869 7.45124C13.8415 7.48876 13.8016 7.53052 13.7674 7.57545C13.723 7.60988 13.6818 7.64989 13.6447 7.69535C13.6092 7.73899 13.5756 7.78457 13.5439 7.83204L13.4855 7.91963C13.4657 7.94936 13.4483 7.97999 13.4332 8.0113C13.4101 8.03724 13.3886 8.0651 13.3687 8.09483L13.2519 8.27002C13.2321 8.29975 13.2147 8.33038 13.1996 8.36168C13.1765 8.38762 13.155 8.41548 13.1351 8.44521L13.0184 8.6204C12.9985 8.65013 12.9811 8.68076 12.9661 8.71207C12.943 8.73801 12.9214 8.76587 12.9016 8.7956L12.7848 8.97079C12.7649 9.00052 12.7475 9.03115 12.7325 9.06245C12.7094 9.08839 12.6878 9.11625 12.668 9.14598L12.5512 9.32117C12.5314 9.3509 12.5139 9.38153 12.4989 9.41284C12.4758 9.43878 12.4542 9.46664 12.4344 9.49637L12.376 9.58396C12.1462 9.92861 12.2393 10.3943 12.584 10.624Z" fill="#9580ff"/>
<path fill-rule="evenodd" clip-rule="evenodd" d="M6.58399 13.376C6.92864 13.1462 7.39429 13.2393 7.62406 13.584L7.68245 13.6716C7.70227 13.7013 7.71969 13.7319 7.73475 13.7632C7.75785 13.7892 7.77943 13.817 7.79925 13.8468L7.91604 14.022C7.93586 14.0517 7.95328 14.0823 7.96834 14.1136C7.99144 14.1396 8.01302 14.1674 8.03284 14.1972L8.14963 14.3724C8.16945 14.4021 8.18687 14.4327 8.20193 14.464C8.22503 14.49 8.24661 14.5178 8.26643 14.5475L8.38322 14.7227C8.40304 14.7525 8.42046 14.7831 8.43552 14.8144C8.45862 14.8403 8.4802 14.8682 8.50002 14.8979L8.61681 15.0731C8.63663 15.1029 8.65405 15.1335 8.66911 15.1648C8.69221 15.1907 8.71379 15.2186 8.73361 15.2483L8.79201 15.3359C8.7973 15.3439 8.80266 15.3511 8.80803 15.3577C8.8133 15.3641 8.81844 15.3707 8.82345 15.3773C8.82978 15.3822 8.83606 15.3872 8.84227 15.3923C8.8544 15.4023 8.86728 15.4109 8.88081 15.4181C8.88786 15.4219 8.89482 15.4258 8.9017 15.4297C8.9095 15.4318 8.91729 15.434 8.92507 15.4363C8.94085 15.4411 8.95739 15.4443 8.97437 15.446C8.98297 15.4468 8.99152 15.4478 9.00002 15.4489C9.00852 15.4478 9.01707 15.4468 9.02567 15.446C9.04265 15.4443 9.05918 15.4411 9.07497 15.4363C9.08275 15.434 9.09054 15.4318 9.09834 15.4297C9.10522 15.4258 9.11218 15.4219 9.11923 15.4181C9.13276 15.4109 9.14564 15.4023 9.15777 15.3923C9.16398 15.3872 9.17025 15.3822 9.17658 15.3773C9.1816 15.3707 9.18674 15.3641 9.192 15.3577C9.19737 15.3511 9.20274 15.3439 9.20803 15.3359L9.26643 15.2483C9.28625 15.2186 9.30782 15.1907 9.33093 15.1648C9.34599 15.1335 9.3634 15.1029 9.38322 15.0731L9.50002 14.8979C9.51984 14.8682 9.54141 14.8403 9.56452 14.8144C9.57958 14.7831 9.59699 14.7525 9.61681 14.7227L9.73361 14.5475C9.75343 14.5178 9.775 14.49 9.79811 14.464C9.81317 14.4327 9.83058 14.4021 9.8504 14.3724L9.9672 14.1972C9.98702 14.1674 10.0086 14.1396 10.0317 14.1136C10.0468 14.0823 10.0642 14.0517 10.084 14.022L10.2008 13.8468C10.2206 13.817 10.2422 13.7892 10.2653 13.7632C10.2803 13.7319 10.2978 13.7013 10.3176 13.6716L10.376 13.584C10.6057 13.2393 11.0714 13.1462 11.416 13.376C11.7607 13.6057 11.8538 14.0714 11.6241 14.416L11.5657 14.5036C11.5458 14.5334 11.5243 14.5612 11.5012 14.5872C11.4861 14.6185 11.4687 14.6491 11.4489 14.6788L11.3321 14.854C11.3122 14.8837 11.2907 14.9116 11.2676 14.9375C11.2525 14.9689 11.2351 14.9995 11.2153 15.0292L11.0985 15.2044C11.0787 15.2341 11.0571 15.262 11.034 15.2879C11.0189 15.3192 11.0015 15.3499 10.9817 15.3796L10.8649 15.5548C10.8451 15.5845 10.8235 15.6124 10.8004 15.6383C10.7853 15.6696 10.7679 15.7003 10.7481 15.73L10.6313 15.9052C10.6115 15.9349 10.5899 15.9628 10.5668 15.9887C10.5517 16.02 10.5343 16.0506 10.5145 16.0804L10.4561 16.168C10.4245 16.2154 10.3908 16.261 10.3553 16.3046C10.3183 16.3501 10.277 16.3901 10.2326 16.4245C10.1984 16.4695 10.1585 16.5112 10.1131 16.5488C10.0227 16.6235 9.9262 16.6877 9.8255 16.7415C9.77345 16.7692 9.71959 16.7903 9.66494 16.8048C9.616 16.8329 9.5631 16.8559 9.50674 16.8729C9.39652 16.906 9.28391 16.928 9.17071 16.939C9.11265 16.9446 9.05549 16.9435 9.00002 16.9362C8.94455 16.9435 8.88739 16.9446 8.82932 16.939C8.71612 16.928 8.60352 16.906 8.4933 16.8728C8.43693 16.8559 8.38403 16.8329 8.3351 16.8048C8.28045 16.7903 8.22659 16.7692 8.17454 16.7415C8.07383 16.6877 7.97736 16.6235 7.88695 16.5488C7.84152 16.5112 7.80165 16.4695 7.76743 16.4245C7.72299 16.3901 7.68175 16.3501 7.64474 16.3046C7.60922 16.261 7.57557 16.2154 7.54393 16.168L7.48553 16.0804C7.46571 16.0506 7.4483 16.02 7.43324 15.9887C7.41013 15.9628 7.38856 15.9349 7.36874 15.9052L7.25194 15.73C7.23212 15.7003 7.21471 15.6696 7.19965 15.6383C7.17654 15.6124 7.15497 15.5845 7.13515 15.5548L7.01835 15.3796C6.99853 15.3499 6.98112 15.3192 6.96606 15.2879C6.94295 15.262 6.92138 15.2341 6.90156 15.2044L6.78476 15.0292C6.76494 14.9995 6.74753 14.9689 6.73247 14.9375C6.70936 14.9116 6.68779 14.8837 6.66797 14.854L6.55117 14.6788C6.53135 14.6491 6.51394 14.6185 6.49888 14.5872C6.47577 14.5612 6.4542 14.5334 6.43438 14.5036L6.37598 14.416C6.14622 14.0714 6.23935 13.6057 6.58399 13.376Z" fill="#9580ff"/>
<path fill-rule="evenodd" clip-rule="evenodd" d="M3.25 6.8C3.25 4.83939 4.83939 3.25 6.8 3.25H17.2C19.1606 3.25 20.75 4.83939 20.75 6.8V17.2C20.75 19.1606 19.1606 20.75 17.2 20.75H6.8C4.83939 20.75 3.25 19.1606 3.25 17.2V6.8ZM6.8 4.75C5.66782 4.75 4.75 5.66782 4.75 6.8V17.2C4.75 18.3322 5.66782 19.25 6.8 19.25H17.2C18.3322 19.25 19.25 18.3322 19.25 17.2V6.8C19.25 5.66782 18.3322 4.75 17.2 4.75H6.8Z" fill="#9580ff"/>
</svg>
